<?xml version="1.0" encoding="utf-8"?>
<!-- Generator: Adobe Illustrator 21.1.0, SVG Export Plug-In . SVG Version: 6.00 Build 0)  -->
<svg version="1.1" xmlns="http://www.w3.org/2000/svg" xmlns:xlink="http://www.w3.org/1999/xlink" x="0px" y="0px"
	 viewBox="0 0 32 32" style="enable-background:new 0 0 32 32;" xml:space="preserve">
<style type="text/css">
	.st0{fill:#010101;}
	.st1{fill:#FFFFFF;stroke:#010101;stroke-linecap:round;stroke-linejoin:round;stroke-miterlimit:10;}
</style>
<g id="EmailRead">
	<path class="st0" d="M26.2,17v8.3l-6.9-5.9l3.8-3c-0.4-0.2-0.7-0.4-1.1-0.7l-7.6,5.9L2.7,12.5v-0.3h17.4c0-0.3-0.1-0.6-0.1-0.9
		c0-0.1,0-0.2,0-0.3H2.1c-0.3,0-0.6,0.3-0.6,0.6v15.1c0,0.3,0.3,0.6,0.6,0.6h24.7c0.3,0,0.6-0.3,0.6-0.6v-9.9
		C27,16.9,26.6,16.9,26.2,17z M2.7,14l6.9,5.4l-6.9,5.9V14z M3.7,26l6.9-5.9l3.5,2.7c0.2,0.2,0.5,0.2,0.7,0l3.5-2.7l6.9,5.9H3.7z"/>
	<path class="st0" d="M25.7,6.6c2.6,0,4.7,2.1,4.7,4.7S28.3,16,25.7,16S21,13.9,21,11.3S23.1,6.6,25.7,6.6 M25.7,5.6
		c-3.2,0-5.7,2.6-5.7,5.7s2.6,5.7,5.7,5.7s5.7-2.6,5.7-5.7S28.9,5.6,25.7,5.6L25.7,5.6z"/>
	<g>
		<path class="st0" d="M25,13.7c-0.1,0-0.3-0.1-0.4-0.1l-1.9-1.9c-0.2-0.2-0.2-0.5,0-0.7s0.5-0.2,0.7,0l1.5,1.5L28.5,9
			c0.2-0.2,0.5-0.2,0.7,0s0.2,0.5,0,0.7l-3.8,3.8C25.3,13.6,25.2,13.7,25,13.7z"/>
	</g>
	<path class="st1" d="M26.9,26.6"/>
	<path class="st1" d="M2,26.6"/>
</g>
<g id="FoldUp">
	<g>
		<path class="st0" d="M2,27.1c-0.1,0-0.3-0.1-0.4-0.2c-0.2-0.2-0.2-0.5,0-0.7l12.6-11.3c0.2-0.2,0.5-0.2,0.7,0l12.2,11.3
			c0.2,0.2,0.2,0.5,0,0.7s-0.5,0.2-0.7,0L14.6,16L2.4,27C2.3,27,2.2,27.1,2,27.1z"/>
	</g>
</g>
</svg>
