<?xml version="1.0" encoding="utf-8"?>
<!-- Generator: Adobe Illustrator 21.1.0, SVG Export Plug-In . SVG Version: 6.00 Build 0)  -->
<svg version="1.1" xmlns="http://www.w3.org/2000/svg" xmlns:xlink="http://www.w3.org/1999/xlink" x="0px" y="0px"
	 viewBox="0 0 50 50" style="enable-background:new 0 0 50 50;" xml:space="preserve">
<style type="text/css">
	.st0{fill:#010101;}
	.st1{fill:#ED1C24;}
</style>
<g id="Fill">
	<circle cx="25" cy="25" r="23.9"/>
</g>
<g id="News">
	<path class="st0" d="M15.9,37.8h19c2.1,0,3.9-1.7,3.9-3.9V18.4c0-0.4-0.3-0.8-0.8-0.8h-5.4V13c0-0.4-0.3-0.8-0.8-0.8H12
		c-0.4,0-0.8,0.3-0.8,0.8v20.1C11.2,35.7,13.3,37.8,15.9,37.8z M32.6,19.2h4.6v14.7c0,1.3-1,2.3-2.3,2.3c-1.3,0-2.3-1-2.3-2.3V19.2z
		 M12.8,13.8H31v20.1c0,0.8,0.3,1.7,0.8,2.3H15.9c-1.7,0-3.1-1.4-3.1-3.1V13.8z"/>
	<path class="st0" d="M13.5,22.1h15.7c0.5,0,0.9-0.4,0.9-0.9v-4.6c0-0.5-0.4-0.9-0.9-0.9H13.5c-0.5,0-0.9,0.4-0.9,0.9v4.6
		C12.6,21.7,13,22.1,13.5,22.1z M14.4,17.5h13.9v2.8H14.4V17.5z"/>
	<rect x="12.6" y="28" class="st0" width="17.5" height="1.8"/>
	<rect x="12.6" y="24.4" class="st0" width="17.5" height="1.8"/>
	<rect x="12.6" y="31.6" class="st0" width="8.5" height="1.8"/>
</g>
<g id="Contact">
	<path class="st0" d="M36.9,11.8H12.6c-2.9,0-5.1,2.3-5.1,5.1v14.9c0,2.9,2.3,5.1,5.1,5.1h24.4c2.9,0,5.1-2.3,5.1-5.1V17
		C42.1,14.2,39.8,11.8,36.9,11.8z M39.8,31.9c0,1.6-1.3,2.9-2.9,2.9H23.1H12.6c-1.6,0-2.9-1.3-2.9-2.9V17c0-1.6,1.3-2.9,2.9-2.9
		h24.4c1.6,0,2.9,1.3,2.9,2.9V31.9z M37,30.5c0.5,0.4,0.5,1.1,0.1,1.6c-0.2,0.3-0.5,0.4-0.8,0.4c-0.3,0-0.5-0.1-0.7-0.3l-7.6-6.8
		l-2.5,1.9c-0.2,0.2-0.4,0.2-0.7,0.2c-0.3,0-0.5-0.1-0.7-0.2l-2.4-1.9L14,32.1c-0.2,0.2-0.5,0.3-0.7,0.3c-0.3,0-0.6-0.1-0.8-0.4
		c-0.4-0.5-0.4-1.2,0.1-1.6l7.3-6.5l-7.3-5.7c-0.5-0.4-0.6-1.1-0.2-1.6c0.4-0.5,1.1-0.6,1.6-0.2l8.4,6.5l0,0l2.4,1.9l10.8-8.4
		c0.5-0.4,1.2-0.3,1.6,0.2c0.4,0.5,0.3,1.2-0.2,1.6l-7.2,5.6L37,30.5z"/>
</g>
<g id="Profile">
	<g>
		<path class="st0" d="M20.4,28.2c1.4,2.2,4.6,2.2,4.6,2.2s3.2,0,4.6-2.2c1.4-2.2,3.1-6.1,3.3-8.8c0.2-2.7-0.4-6.6-1.5-8.3
			C29.3,8,25,8,25,8s-4.3,0-6.4,3.1c-1.1,1.6-1.7,5.6-1.5,8.3C17.3,22,19,26,20.4,28.2z"/>
		<path class="st0" d="M42.8,39.3c0-0.2,0-0.4-0.1-0.5c-0.1-1-0.4-2.3-0.9-3.6c-0.7-2-2.2-3.8-4.2-4.5c-2.6-0.9-4.9-1.4-6.4-1.6
			c0,0-0.1,0.1-0.1,0.1c-1.9,3-5.7,3.1-6.2,3.1c0,0,0,0,0,0s0,0,0,0c-0.4,0-4.3-0.1-6.2-3.1c0,0-0.1-0.1-0.1-0.1
			c-1.6,0.3-3.8,0.7-6.4,1.6c-2,0.7-3.4,2.5-4.2,4.5c-0.5,1.4-0.8,2.6-0.9,3.6c0,0.2-0.1,0.4-0.1,0.5c0,0.8,0.6,1.4,1.4,1.5v0.9
			c0,0,7.6,7.3,16.5,7.3s17.8-7.7,17.8-7.7l-0.4-0.9C42.7,40,42.8,39.7,42.8,39.3z"/>
	</g>
</g>
<g id="Info">
	<g>
		<path class="st0" d="M30.8,37.4l-0.4,1.8c-1.3,0.5-2.4,0.9-3.2,1.2c-0.8,0.3-1.7,0.4-2.8,0.4c-1.6,0-2.9-0.4-3.7-1.2
			c-0.9-0.8-1.3-1.8-1.3-3c0-0.5,0-0.9,0.1-1.4c0.1-0.5,0.2-1,0.3-1.7l1.7-5.9c0.1-0.6,0.3-1.1,0.4-1.6c0.1-0.5,0.2-1,0.2-1.4
			c0-0.7-0.2-1.3-0.5-1.6s-0.9-0.4-1.8-0.4c-0.4,0-0.9,0.1-1.3,0.2c-0.5,0.1-0.8,0.3-1.2,0.4l0.4-1.8c1.1-0.4,2.1-0.8,3.1-1.1
			c1-0.3,1.9-0.5,2.8-0.5c1.6,0,2.8,0.4,3.7,1.2c0.9,0.8,1.3,1.8,1.3,3c0,0.3,0,0.7-0.1,1.3c-0.1,0.6-0.2,1.2-0.3,1.8L26.5,33
			c-0.1,0.5-0.3,1-0.4,1.6C26.1,35.2,26,35.7,26,36c0,0.8,0.2,1.3,0.5,1.6c0.3,0.3,1,0.4,1.8,0.4c0.4,0,0.9-0.1,1.4-0.2
			C30.2,37.6,30.6,37.5,30.8,37.4z M31.2,12.9c0,1-0.4,1.9-1.2,2.6c-0.8,0.7-1.7,1.1-2.8,1.1c-1.1,0-2-0.4-2.8-1.1
			c-0.8-0.7-1.2-1.6-1.2-2.6c0-1,0.4-1.9,1.2-2.6c0.8-0.7,1.7-1.1,2.8-1.1c1.1,0,2,0.4,2.8,1.1C30.8,11,31.2,11.9,31.2,12.9z"/>
	</g>
</g>
<g id="Congress">
	<g>
		<g>
			<polygon class="st0" points="40.9,40 9.9,40 11.4,37.2 39,37.2 			"/>
			<path class="st0" d="M37.7,35.5l0.8,1.1h-3.8l-9.7-4l0,0l-8.7,3.6l0,0l-1.1,0.5h-3.5l0.7-1.1l2.7-0.1v-5.9c2-1.6,7.3-2.4,9.9-2.3
				v0l0.1,0h0l0.2,0v0c2.4,0,7.4,0.6,9.6,2.1l0,6.2L37.7,35.5z M33.4,33.5v-3.4c0-0.1-0.1-0.2-0.1-0.3c-0.1-0.1-0.2-0.1-0.4-0.1
				c-0.3,0-0.5,0.2-0.5,0.4v3.4c0,0.1,0.1,0.2,0.1,0.3c0.1,0.1,0.2,0.1,0.4,0.1C33.1,33.9,33.4,33.8,33.4,33.5z M30.8,32.8v-3.6
				c0-0.1-0.1-0.2-0.1-0.3c-0.1-0.1-0.2-0.1-0.4-0.1c-0.3,0-0.5,0.2-0.5,0.4v3.6c0,0.1,0.1,0.2,0.1,0.3c0.1,0.1,0.2,0.1,0.4,0.1
				C30.5,33.2,30.8,33,30.8,32.8z M28.1,32.2v-3.6c0-0.1-0.1-0.2-0.1-0.3c-0.1-0.1-0.2-0.1-0.4-0.1c-0.3,0-0.5,0.2-0.5,0.4v3.6
				c0,0.1,0.1,0.2,0.1,0.3c0.1,0.1,0.2,0.1,0.4,0.1C27.9,32.6,28.1,32.4,28.1,32.2z M25.5,31.9v-3.5c0-0.1-0.1-0.2-0.1-0.3
				C25.3,28.1,25.2,28,25,28c-0.3,0-0.5,0.2-0.5,0.4v3.5c0,0.1,0.1,0.2,0.1,0.3c0.1,0.1,0.2,0.1,0.4,0.1
				C25.3,32.3,25.5,32.1,25.5,31.9z M22.9,32.3v-3.6c0-0.1-0.1-0.2-0.1-0.3c-0.1-0.1-0.2-0.1-0.4-0.1c-0.3,0-0.5,0.2-0.5,0.4v3.6
				c0,0.1,0.1,0.2,0.1,0.3c0.1,0.1,0.2,0.1,0.4,0.1C22.7,32.7,22.9,32.5,22.9,32.3z M20.3,32.8v-3.6c0-0.1-0.1-0.2-0.1-0.3
				c-0.1-0.1-0.2-0.1-0.4-0.1c-0.3,0-0.5,0.2-0.5,0.4v3.6c0,0.1,0.1,0.2,0.1,0.3c0.1,0.1,0.2,0.1,0.4,0.1
				C20.1,33.2,20.3,33,20.3,32.8z M17.7,33.5v-3.4c0-0.1-0.1-0.2-0.1-0.3c-0.1-0.1-0.2-0.1-0.4-0.1c-0.3,0-0.5,0.2-0.5,0.4v3.4
				c0,0.1,0.1,0.2,0.1,0.3c0.1,0.1,0.2,0.1,0.4,0.1C17.5,33.9,17.7,33.8,17.7,33.5z"/>
			<path class="st0" d="M35.8,27.9c0.2,0.5,0.1,0.9,0,1.2c-0.1-0.1-0.2-0.2-0.4-0.3c-2.4-1.7-7.9-2.4-10.3-2.3c0,0,0,0,0,0
				c-2.5-0.1-8.4,0.7-10.6,2.6c0,0-0.3-0.5-0.1-1.1c0.4-0.4,1-0.7,1.8-1c2.6-1.1,6.7-1.7,8.8-1.6v0c0,0,0.1,0,0.1,0c0,0,0,0,0,0
				c0,0,0.1,0,0.1,0v0c1.7,0,5.2,0.3,8,1.3C34.4,27,35.2,27.5,35.8,27.9z"/>
			<path class="st0" d="M34,23.3c-1.8-2-6.7-2.9-9.1-2.8c0,0,0,0,0,0c-2.2-0.1-7.2,0.7-9.1,2.8c0,0,0,0,0,0c-0.1-1,0.2-1.5,0.2-1.5
				c0.5-0.5,1.2-0.9,2.1-1.3c2.3-1,5.3-1.4,6.7-1.4v0c0,0,0,0,0.1,0c0,0,0,0,0,0c0,0,0,0,0.1,0v0c1.4,0,4.3,0.4,6.7,1.4
				c1,0.4,1.8,0.9,2.3,1.5C34.1,22.6,34.1,23.1,34,23.3z"/>
			<path class="st0" d="M33.6,23.8v2.3c-0.1,0-0.1,0-0.2-0.1c-0.6-0.2-1.3-0.4-1.9-0.6c0,0,0,0,0,0v-1.8c0-0.1-0.2-0.2-0.4-0.2
				c-0.2,0-0.4,0.1-0.4,0.2v1.6c-0.4-0.1-0.9-0.2-1.3-0.2c0,0,0,0,0-0.1V23c0-0.1-0.2-0.2-0.4-0.2c-0.2,0-0.4,0.1-0.4,0.2v1.9
				c-0.4-0.1-0.9-0.1-1.3-0.2c0,0,0,0,0,0v-2.1c0-0.1-0.2-0.3-0.4-0.3c-0.2,0-0.4,0.1-0.4,0.3v2.1c-0.5,0-0.9,0-1.3,0c0,0,0,0,0,0
				v-2.2c0-0.1-0.2-0.3-0.4-0.3c-0.2,0-0.4,0.1-0.4,0.3v2.2c0,0,0,0,0,0c-0.4,0-0.8,0-1.3,0.1v-2.1c0-0.1-0.2-0.3-0.4-0.3
				c-0.2,0-0.4,0.1-0.4,0.3v2.1c0,0,0,0,0,0c-0.4,0-0.8,0.1-1.3,0.2V23c0-0.1-0.2-0.2-0.4-0.2c-0.2,0-0.4,0.1-0.4,0.2V25
				c0,0,0,0.1,0.1,0.1c-0.4,0.1-0.9,0.2-1.3,0.3v-1.7c0-0.1-0.2-0.2-0.4-0.2c-0.2,0-0.4,0.1-0.4,0.2v1.8c0,0,0,0.1,0.1,0.1
				c-0.7,0.2-1.4,0.4-2,0.6v-2.5c1.7-1.8,6.2-2.5,8.4-2.5v0c0,0,0.1,0,0.1,0h0l0.1,0v0C27.3,21.1,32,22,33.6,23.8z"/>
			<polygon class="st0" points="33.1,36.6 16.9,36.6 25,33.3 			"/>
			<path class="st0" d="M26.4,12.9c2.3,0.8,4.1,3.3,4.9,6.8c-2.1-0.8-4.9-1.2-6.4-1.2c0,0,0,0,0,0c0,0,0,0,0,0
				c-1.3,0-4.1,0.3-6.5,1.2c0.8-3.6,2.7-6.2,5.1-6.9C24.5,12.5,25.5,12.6,26.4,12.9z"/>
			<path class="st0" d="M26.3,9.2v3c-0.8-0.2-1.7-0.3-2.6-0.1V9.3c0.2-0.2,0.4-0.3,0.6-0.4c0.4-0.2,0.9-0.2,1.4,0
				C25.9,9,26.1,9.1,26.3,9.2z"/>
			<path class="st0" d="M24.9,4.3c0.1,0.3,0.4,1.3,0.5,4.1c-0.3-0.1-0.6-0.1-0.9,0C24.5,6.2,24.7,4.8,24.9,4.3z"/>
		</g>
	</g>
</g>
<g id="Schedule">
	<g>
		<path class="st0" d="M15.4,15.9h0.2c0.5,0,0.9-0.4,0.9-0.9v-2.8c0-0.5-0.4-0.9-0.9-0.9h-0.2c-0.5,0-0.9,0.4-0.9,0.9V15
			C14.5,15.5,14.9,15.9,15.4,15.9z"/>
		<path class="st0" d="M21.6,15.9h0.2c0.5,0,0.9-0.4,0.9-0.9v-2.8c0-0.5-0.4-0.9-0.9-0.9h-0.2c-0.5,0-0.9,0.4-0.9,0.9V15
			C20.7,15.5,21.1,15.9,21.6,15.9z"/>
		<path class="st0" d="M27.8,15.9H28c0.5,0,0.9-0.4,0.9-0.9v-2.8c0-0.5-0.4-0.9-0.9-0.9h-0.2c-0.5,0-0.9,0.4-0.9,0.9V15
			C26.9,15.5,27.3,15.9,27.8,15.9z"/>
		<path class="st0" d="M34,15.9h0.2c0.5,0,0.9-0.4,0.9-0.9v-2.8c0-0.5-0.4-0.9-0.9-0.9H34c-0.5,0-0.9,0.4-0.9,0.9V15
			C33.2,15.5,33.5,15.9,34,15.9z"/>
		<rect x="14.3" y="30.7" class="st0" width="3.1" height="3.1"/>
		<rect x="18.8" y="30.7" class="st0" width="3.1" height="3.1"/>
		<rect x="32.3" y="26.1" class="st0" width="3.1" height="3.1"/>
		<rect x="27.8" y="21.8" class="st0" width="3.1" height="3.1"/>
		<rect x="23.3" y="26.1" class="st0" width="3.1" height="3.1"/>
		<rect x="27.8" y="26.1" class="st0" width="3.1" height="3.1"/>
		<rect x="23.3" y="30.7" class="st0" width="3.1" height="3.1"/>
		<rect x="27.8" y="30.7" class="st0" width="3.1" height="3.1"/>
		<rect x="32.3" y="21.8" class="st0" width="3.1" height="3.1"/>
		<rect x="32.2" y="30.7" class="st0" width="3.1" height="3.1"/>
		<path class="st0" d="M22.5,21c0,0-3.5,2.7-4.8,6.2c0,0-0.6-1.1-1.4-2.2l-2.1,1.3c0,0,2.4,1.1,3.6,3.1c0,0,1.4-3.2,4.9-5.3
			C22.7,24.2,22.4,22.3,22.5,21z"/>
		<path class="st0" d="M38.6,14.2h-2.5V15c0,1-0.8,1.8-1.8,1.8H34c-1,0-1.8-0.8-1.8-1.8v-0.8h-2.3V15c0,1-0.8,1.8-1.8,1.8h-0.2
			c-1,0-1.8-0.8-1.8-1.8v-0.8h-2.3V15c0,1-0.8,1.8-1.8,1.8h-0.2c-1,0-1.8-0.8-1.8-1.8v-0.8h-2.3V15c0,1-0.8,1.8-1.8,1.8h-0.2
			c-1,0-1.8-0.8-1.8-1.8v-0.8h-2.3c-0.5,0-0.9,0.4-0.9,0.9v21.9c0,0.5,0.4,0.9,0.9,0.9h27.4c0.5,0,0.9-0.4,0.9-0.9V15
			C39.4,14.5,39,14.2,38.6,14.2z M37.1,35.1c0,0.3-0.2,0.5-0.5,0.5H13c-0.3,0-0.5-0.2-0.5-0.5V20.5c0-0.3,0.2-0.5,0.5-0.5h23.6
			c0.3,0,0.5,0.2,0.5,0.5V35.1z"/>
	</g>
</g>
<g id="Outline">
	<g>
		<path class="st0" d="M25,2.3c12.5,0,22.7,10.2,22.7,22.7S37.5,47.7,25,47.7S2.3,37.5,2.3,25S12.5,2.3,25,2.3 M25,0.3
			C11.4,0.3,0.3,11.4,0.3,25s11,24.7,24.7,24.7s24.7-11,24.7-24.7S38.6,0.3,25,0.3L25,0.3z"/>
	</g>
</g>
<g id="Website">
	<path class="st1" d="M25,0.3C11.4,0.3,0.3,11.4,0.3,25c0,13.6,11.1,24.7,24.7,24.7c13.6,0,24.7-11.1,24.7-24.7
		C49.7,11.4,38.6,0.3,25,0.3z M19.6,3.2c-1.2,1.3-2.2,2.9-3.1,4.8c-0.4,1-0.8,2-1.2,3.1h-8C10.4,7.3,14.7,4.4,19.6,3.2z M5.8,13.4
		h8.9c-0.8,3.1-1.3,6.7-1.3,10.5H2.6C2.8,20,3.9,16.5,5.8,13.4z M2.6,26.1h10.8c0.1,3.7,0.5,7.2,1.3,10.3h-9
		C3.9,33.4,2.8,29.9,2.6,26.1z M7.2,38.7L7.2,38.7l8.1,0c0.4,1.2,0.8,2.2,1.2,3.3c0.9,1.9,1.9,3.6,3.1,4.8
		C14.6,45.5,10.3,42.6,7.2,38.7z M23.9,47c-0.7-0.2-1.5-0.7-2.2-1.4c-1.1-1-2.2-2.6-3.1-4.6c-0.3-0.7-0.6-1.5-0.9-2.3h6.2V47z
		 M23.9,36.5H17c-0.8-3-1.3-6.6-1.4-10.3h8.2V36.5z M23.9,23.9h-8.2c0.1-3.8,0.6-7.4,1.4-10.5h6.8V23.9z M23.9,11.2h-6.1
		c0.3-0.8,0.6-1.5,0.9-2.2c0.9-2,2-3.6,3.1-4.6c0.7-0.7,1.5-1.1,2.2-1.4V11.2z M26.1,3c0.7,0.2,1.5,0.7,2.2,1.4
		c1.1,1,2.2,2.6,3.1,4.6c0.3,0.7,0.6,1.4,0.9,2.2h-6.1V3z M26.1,13.4h6.8c0.8,3.1,1.3,6.7,1.4,10.5h-8.2V13.4z M26.1,26.1h8.2
		c-0.1,3.8-0.6,7.3-1.4,10.3h-6.9V26.1z M26.1,47v-8.3h6.2c-0.3,0.8-0.6,1.6-0.9,2.3c-0.9,2-2,3.6-3.1,4.6
		C27.6,46.4,26.9,46.8,26.1,47z M30.4,46.8c1.2-1.3,2.2-2.9,3.1-4.8c0.5-1,0.9-2.1,1.2-3.3h8.1C39.7,42.6,35.4,45.5,30.4,46.8z
		 M44.3,36.5C44.3,36.5,44.3,36.5,44.3,36.5l-9,0c0.8-3.1,1.2-6.6,1.3-10.3h10.8C47.2,29.9,46.1,33.4,44.3,36.5z M47.4,23.9H36.6
		c-0.1-3.8-0.5-7.3-1.3-10.5h8.9C46.1,16.5,47.2,20,47.4,23.9z M34.6,11.2C34.3,10,33.9,9,33.4,8c-0.9-1.9-1.9-3.6-3.1-4.8
		c4.9,1.2,9.2,4.1,12.3,7.9H34.6z"/>
</g>
</svg>
