<?xml version="1.0" encoding="utf-8"?>
<!-- Generator: Adobe Illustrator 21.1.0, SVG Export Plug-In . SVG Version: 6.00 Build 0)  -->
<svg version="1.1" xmlns="http://www.w3.org/2000/svg" xmlns:xlink="http://www.w3.org/1999/xlink" x="0px" y="0px"
	 viewBox="0 0 50 50" style="enable-background:new 0 0 50 50;" xml:space="preserve">
<style type="text/css">
	.st0{fill:#010101;}
</style>
<g id="Fill">
	<circle cx="25" cy="25" r="23.9"/>
</g>
<g id="News">
	<path class="st0" d="M14.4,39.8h22c2.5,0,4.5-2,4.5-4.5v-18c0-0.5-0.4-0.9-0.9-0.9h-6.3v-5.4c0-0.5-0.4-0.9-0.9-0.9H9.9
		c-0.5,0-0.9,0.4-0.9,0.9v23.4C9,37.4,11.5,39.8,14.4,39.8z M33.8,18.3h5.4v17.1c0,1.5-1.2,2.7-2.7,2.7c-1.5,0-2.7-1.2-2.7-2.7V18.3
		z M10.8,12H32v23.4c0,1,0.3,1.9,0.9,2.7H14.4c-2,0-3.6-1.6-3.6-3.6V12z"/>
	<path class="st0" d="M13.5,22.1h15.7c0.5,0,0.9-0.4,0.9-0.9v-4.6c0-0.5-0.4-0.9-0.9-0.9H13.5c-0.5,0-0.9,0.4-0.9,0.9v4.6
		C12.6,21.7,13,22.1,13.5,22.1z M14.4,17.5h13.9v2.8H14.4V17.5z"/>
	<rect x="12.6" y="28" class="st0" width="17.5" height="1.8"/>
	<rect x="12.6" y="24.4" class="st0" width="17.5" height="1.8"/>
	<rect x="12.6" y="31.6" class="st0" width="8.5" height="1.8"/>
</g>
<g id="Contact">
	<path class="st0" d="M37.5,11.3H12c-3,0-5.4,2.4-5.4,5.4v15.5c0,3,2.4,5.4,5.4,5.4h25.5c3,0,5.4-2.4,5.4-5.4V16.6
		C42.8,13.7,40.5,11.3,37.5,11.3z M40.5,32.2c0,1.7-1.4,3-3,3H23.1H12c-1.7,0-3-1.4-3-3V16.6c0-1.7,1.4-3,3-3h25.5c1.7,0,3,1.4,3,3
		V32.2z M37.5,30.7c0.5,0.4,0.5,1.2,0.1,1.7c-0.2,0.3-0.6,0.4-0.9,0.4c-0.3,0-0.6-0.1-0.8-0.3l-8-7.1l-2.6,2
		c-0.2,0.2-0.4,0.2-0.7,0.2s-0.5-0.1-0.7-0.2l-2.5-1.9l-8,7.1c-0.2,0.2-0.5,0.3-0.8,0.3c-0.3,0-0.7-0.1-0.9-0.4
		c-0.4-0.5-0.4-1.2,0.1-1.7l7.7-6.7L12,18.1c-0.5-0.4-0.6-1.2-0.2-1.7c0.4-0.5,1.2-0.6,1.7-0.2l8.7,6.8l0,0l2.5,2L36,16.3
		c0.5-0.4,1.3-0.3,1.7,0.2c0.4,0.5,0.3,1.3-0.2,1.7l-7.5,5.8L37.5,30.7z"/>
</g>
<g id="Profile">
	<g>
		<path class="st0" d="M20.4,28.2c1.4,2.2,4.6,2.2,4.6,2.2s3.2,0,4.6-2.2c1.4-2.2,3.1-6.1,3.3-8.8c0.2-2.7-0.4-6.6-1.5-8.3
			C29.3,8,25,8,25,8s-4.3,0-6.4,3.1c-1.1,1.6-1.7,5.6-1.5,8.3C17.3,22,19,26,20.4,28.2z"/>
		<path class="st0" d="M42.8,39.3c0-0.2,0-0.4-0.1-0.5c-0.1-1-0.4-2.3-0.9-3.6c-0.7-2-2.2-3.8-4.2-4.5c-2.6-0.9-4.9-1.4-6.4-1.6
			c0,0-0.1,0.1-0.1,0.1c-1.9,3-5.7,3.1-6.2,3.1c0,0,0,0,0,0s0,0,0,0c-0.4,0-4.3-0.1-6.2-3.1c0,0-0.1-0.1-0.1-0.1
			c-1.6,0.3-3.8,0.7-6.4,1.6c-2,0.7-3.4,2.5-4.2,4.5c-0.5,1.4-0.8,2.6-0.9,3.6c0,0.2-0.1,0.4-0.1,0.5c0,0.8,0.6,1.4,1.4,1.5v0.9
			c0,0,7.6,7.3,16.5,7.3s17.8-7.7,17.8-7.7l-0.4-0.9C42.7,40,42.8,39.7,42.8,39.3z"/>
	</g>
</g>
<g id="Info">
	<g>
		<path class="st0" d="M30.8,37.4l-0.4,1.8c-1.3,0.5-2.4,0.9-3.2,1.2c-0.8,0.3-1.7,0.4-2.8,0.4c-1.6,0-2.9-0.4-3.7-1.2
			c-0.9-0.8-1.3-1.8-1.3-3c0-0.5,0-0.9,0.1-1.4c0.1-0.5,0.2-1,0.3-1.7l1.7-5.9c0.1-0.6,0.3-1.1,0.4-1.6c0.1-0.5,0.2-1,0.2-1.4
			c0-0.7-0.2-1.3-0.5-1.6s-0.9-0.4-1.8-0.4c-0.4,0-0.9,0.1-1.3,0.2c-0.5,0.1-0.8,0.3-1.2,0.4l0.4-1.8c1.1-0.4,2.1-0.8,3.1-1.1
			c1-0.3,1.9-0.5,2.8-0.5c1.6,0,2.8,0.4,3.7,1.2c0.9,0.8,1.3,1.8,1.3,3c0,0.3,0,0.7-0.1,1.3c-0.1,0.6-0.2,1.2-0.3,1.8L26.5,33
			c-0.1,0.5-0.3,1-0.4,1.6C26.1,35.2,26,35.7,26,36c0,0.8,0.2,1.3,0.5,1.6c0.3,0.3,1,0.4,1.8,0.4c0.4,0,0.9-0.1,1.4-0.2
			C30.2,37.6,30.6,37.5,30.8,37.4z M31.2,12.9c0,1-0.4,1.9-1.2,2.6c-0.8,0.7-1.7,1.1-2.8,1.1c-1.1,0-2-0.4-2.8-1.1
			c-0.8-0.7-1.2-1.6-1.2-2.6c0-1,0.4-1.9,1.2-2.6c0.8-0.7,1.7-1.1,2.8-1.1c1.1,0,2,0.4,2.8,1.1C30.8,11,31.2,11.9,31.2,12.9z"/>
	</g>
</g>
<g id="Outline">
	<g>
		<path class="st0" d="M25,2.3c12.5,0,22.7,10.2,22.7,22.7S37.5,47.7,25,47.7S2.3,37.5,2.3,25S12.5,2.3,25,2.3 M25,0.3
			C11.4,0.3,0.3,11.4,0.3,25s11,24.7,24.7,24.7s24.7-11,24.7-24.7S38.6,0.3,25,0.3L25,0.3z"/>
	</g>
</g>
</svg>
